<svg xmlns="http://www.w3.org/2000/svg" width="5.062" height="9.531" viewBox="0 0 5.062 9.531">
  <defs>
    <style>
      .cls-1 {
        fill: #fff;
        fill-rule: evenodd;
      }
    </style>
  </defs>
  <path id="Forma_1" data-name="Forma 1" class="cls-1" d="M676.826,312.691l-1.211,0a2.15,2.15,0,0,0-2.239,2.346v1.081h-1.218a0.193,0.193,0,0,0-.19.195v1.568a0.192,0.192,0,0,0,.19.194h1.218v3.954a0.192,0.192,0,0,0,.19.195h1.589a0.192,0.192,0,0,0,.19-0.195v-3.954h1.424a0.192,0.192,0,0,0,.19-0.194v-1.568a0.2,0.2,0,0,0-.056-0.138,0.191,0.191,0,0,0-.135-0.057h-1.424V315.2a0.548,0.548,0,0,1,.665-0.665h0.816a0.193,0.193,0,0,0,.191-0.194v-1.456A0.193,0.193,0,0,0,676.826,312.691Z" transform="translate(-671.969 -312.688)"/>
</svg>
