<svg xmlns="http://www.w3.org/2000/svg" width="8.969" height="7.843" viewBox="0 0 8.969 7.843">
  <defs>
    <style>
      .cls-1 {
        fill: #fff;
        fill-rule: evenodd;
      }
    </style>
  </defs>
  <path id="Forma_1" data-name="Forma 1" class="cls-1" d="M703.7,313.955a3.562,3.562,0,0,1-1.17.482,1.779,1.779,0,0,0-1.344-.627,1.916,1.916,0,0,0-1.841,1.983,2.091,2.091,0,0,0,.048.451,5.113,5.113,0,0,1-3.8-2.072,2.1,2.1,0,0,0-.248,1,2.023,2.023,0,0,0,.818,1.649,1.731,1.731,0,0,1-.834-0.247V316.6a1.954,1.954,0,0,0,1.477,1.944,1.728,1.728,0,0,1-.485.069,1.807,1.807,0,0,1-.347-0.035,1.869,1.869,0,0,0,1.72,1.376,3.529,3.529,0,0,1-2.286.849,3.753,3.753,0,0,1-.44-0.027,4.943,4.943,0,0,0,2.823.89c3.386,0,5.238-3.02,5.238-5.64l-0.006-.257a3.878,3.878,0,0,0,.921-1.024,3.5,3.5,0,0,1-1.058.311A1.969,1.969,0,0,0,703.7,313.955Z" transform="translate(-694.969 -313.813)"/>
</svg>
